<?xml version="1.0" encoding="UTF-8"?>
<svg xmlns="http://www.w3.org/2000/svg" xmlns:xlink="http://www.w3.org/1999/xlink" viewBox="0 0 48 48" version="1.1" width="48px" height="48px">
<g id="surface1">
<path style=" fill:#FF1744;" d="M 41.398438 29.5 C 37.300781 17.101563 27.898438 26.199219 27.898438 26.199219 C 27.898438 26.199219 26.601563 26.300781 25.101563 26.800781 C 21.898438 23.699219 15.898438 25.601563 15.898438 25.601563 C 15.898438 25.601563 4.800781 21.898438 6.101563 34.300781 C 6.699219 39.601563 10.800781 43 16.5 43 C 19.398438 43 21.898438 42.101563 23.699219 40.601563 C 26.699219 43.300781 31.101563 43.800781 35.5 41.800781 C 40.898438 39.398438 43.101563 34.601563 41.398438 29.5 Z "/>
<path style=" fill:#D50000;" d="M 29.699219 35.300781 C 29.300781 31.398438 32.398438 24.300781 35 23 C 31.398438 22.898438 27.898438 26.199219 27.898438 26.199219 C 27.898438 26.199219 26.699219 26.300781 25.199219 26.800781 C 25.101563 26.699219 25 26.699219 24.898438 26.699219 C 26.300781 28 27.199219 30.398438 26.800781 34.300781 C 26.5 36.898438 25.398438 39 23.699219 40.5 C 25.199219 41.898438 28.800781 44.5 35.5 41.800781 C 32.398438 41.199219 30.101563 39.199219 29.699219 35.300781 Z "/>
<path style=" fill:#FFCDD2;" d="M 10.101563 34.898438 C 9.699219 34.898438 9.199219 34.601563 9.101563 34.101563 C 8.101563 30 10.5 28.300781 11.5 27.699219 C 12 27.398438 12.601563 27.601563 12.800781 28.101563 C 13.101563 28.601563 12.898438 29.199219 12.398438 29.398438 C 11.398438 29.898438 10.398438 31 11 33.5 C 11.101563 34 10.800781 34.601563 10.300781 34.699219 C 10.199219 34.898438 10.199219 34.898438 10.101563 34.898438 Z "/>
<path style=" fill:#795548;" d="M 28.800781 24.300781 C 28.699219 24 28.601563 23.800781 28.5 23.5 C 28.5 23.398438 28.398438 23.300781 28.398438 23.199219 C 28.300781 23 28.300781 22.800781 28.199219 22.699219 C 28.101563 22.5 28.101563 22.398438 28 22.199219 C 27.898438 22 27.898438 21.898438 27.898438 21.699219 C 27.800781 21.5 27.800781 21.300781 27.699219 21.199219 C 27.601563 21 27.601563 20.800781 27.5 20.601563 C 27.5 20.5 27.398438 20.398438 27.398438 20.300781 C 27.300781 20.101563 27.300781 19.898438 27.300781 19.699219 C 27.300781 19.601563 27.300781 19.5 27.199219 19.398438 C 27.199219 19.199219 27.101563 19 27.101563 18.800781 C 27.101563 18.699219 27.101563 18.601563 27 18.5 C 27 18.300781 26.898438 18.101563 26.898438 17.898438 C 26.898438 17.800781 26.898438 17.699219 26.898438 17.699219 C 26.898438 17.5 26.898438 17.300781 26.898438 17.101563 C 26.898438 17 26.898438 16.898438 26.898438 16.800781 C 26.898438 16.601563 26.898438 16.398438 26.898438 16.199219 C 26.898438 16.101563 26.898438 16.101563 26.898438 16 C 26.898438 15.800781 26.898438 15.601563 26.898438 15.398438 C 26.898438 15.300781 26.898438 15.199219 26.898438 15.199219 C 26.898438 15 26.898438 14.898438 26.898438 14.699219 C 26.898438 14.601563 26.898438 14.5 26.898438 14.398438 C 26.898438 14.300781 26.898438 14.101563 26.898438 14 C 26.898438 13.898438 26.898438 13.800781 26.898438 13.699219 C 26.898438 13.601563 26.898438 13.5 26.898438 13.398438 C 26.898438 13.300781 26.898438 13.199219 27 13 C 27 12.898438 27 12.898438 27 12.800781 C 27 12.699219 27.101563 12.5 27.101563 12.398438 C 27.101563 12.300781 27.101563 12.300781 27.101563 12.199219 C 27.101563 12 27.199219 11.898438 27.199219 11.699219 C 27.199219 11.699219 27.199219 11.601563 27.199219 11.601563 C 27.199219 11.398438 27.300781 11.300781 27.300781 11.101563 C 27.898438 9 28.898438 7.601563 29.300781 7.101563 C 29.398438 7.101563 29.5 7 29.5 7 C 30 6.800781 30.199219 6.199219 30 5.699219 C 29.800781 5.199219 29.5 4.800781 29 5 C 29 5 28.898438 5 28.898438 5.101563 C 28.800781 5.101563 28.699219 5.101563 28.601563 5.199219 C 28.5 5.199219 28.5 5.300781 28.398438 5.398438 C 14.5 11.699219 15 26.898438 15 27 C 15 27.5 15.5 28 16 28 C 16.601563 28 17 27.5 17 27 C 17 26.898438 16.601563 15.300781 26.199219 8.800781 C 24.699219 12.5 23.5 18.898438 28.101563 27.5 C 28.300781 27.800781 28.601563 28 29 28 C 29.199219 28 29.300781 28 29.5 27.898438 C 29.898438 27.699219 30.101563 27.300781 30 26.898438 C 30 26.800781 29.898438 26.601563 29.898438 26.5 C 29.699219 26.101563 29.5 25.699219 29.300781 25.398438 C 29.300781 25.398438 29.300781 25.300781 29.300781 25.300781 C 29.101563 25 28.898438 24.601563 28.800781 24.300781 Z "/>
<path style=" fill:#4CAF50;" d="M 38 18 C 36.199219 16.101563 40.898438 5 29 5 C 22.199219 18.199219 38 18 38 18 Z "/>
</g>
</svg>
