<?xml version="1.0" encoding="UTF-8"?>
<svg xmlns="http://www.w3.org/2000/svg" xmlns:xlink="http://www.w3.org/1999/xlink" viewBox="0 0 48 48" version="1.1" width="48px" height="48px">
<g id="surface1">
<path style=" fill:#388E3C;" d="M 28 15 C 28 15 27.5 14 29 13 C 33.898438 10.199219 37.601563 12.5 40 10 C 39.800781 13.800781 38 15 38 15 Z M 25 15.699219 C 22.398438 7.398438 28.199219 4 28.5 3.898438 L 28 3 L 28.5 3.898438 L 27.5 2.101563 C 27.398438 2.101563 20 6.398438 23 16.300781 Z M 17 15 L 17 14 C 16.199219 8.5 11.601563 12.101563 7 10 C 7.601563 12.699219 10 15 10 15 Z "/>
<path style=" fill:#4CAF50;" d="M 32 16 L 25 16 C 24.699219 15 24.5 13.699219 24.398438 12.800781 C 25.699219 10.800781 29.898438 11.101563 33 6 C 35.398438 11.5 32 16 32 16 Z M 23 16 C 23 16 23.398438 16.699219 23 14 C 22.199219 8.398438 17.398438 10.5 15 4 C 10.101563 11.898438 16 16 16 16 Z "/>
<path style=" fill:#FF4081;" d="M 20 33 C 20 35.761719 17.761719 38 15 38 C 12.238281 38 10 35.761719 10 33 C 10 30.238281 12.238281 28 15 28 C 17.761719 28 20 30.238281 20 33 Z "/>
<path style=" fill:#FF4081;" d="M 29 34 C 29 36.761719 26.761719 39 24 39 C 21.238281 39 19 36.761719 19 34 C 19 31.238281 21.238281 29 24 29 C 26.761719 29 29 31.238281 29 34 Z "/>
<path style=" fill:#FF4081;" d="M 38 33 C 38 35.761719 35.761719 38 33 38 C 30.238281 38 28 35.761719 28 33 C 28 30.238281 30.238281 28 33 28 C 35.761719 28 38 30.238281 38 33 Z "/>
<path style=" fill:#FF4081;" d="M 33 27 C 33 29.761719 30.761719 32 28 32 C 25.238281 32 23 29.761719 23 27 C 23 24.238281 25.238281 22 28 22 C 30.761719 22 33 24.238281 33 27 Z "/>
<path style=" fill:#FF4081;" d="M 41 26 C 41 28.761719 38.761719 31 36 31 C 33.238281 31 31 28.761719 31 26 C 31 23.238281 33.238281 21 36 21 C 38.761719 21 41 23.238281 41 26 Z "/>
<path style=" fill:#FF4081;" d="M 17 26 C 17 28.761719 14.761719 31 12 31 C 9.238281 31 7 28.761719 7 26 C 7 23.238281 9.238281 21 12 21 C 14.761719 21 17 23.238281 17 26 Z "/>
<path style=" fill:#FF4081;" d="M 25 27 C 25 29.761719 22.761719 32 20 32 C 17.238281 32 15 29.761719 15 27 C 15 24.238281 17.238281 22 20 22 C 22.761719 22 25 24.238281 25 27 Z "/>
<path style=" fill:#FF4081;" d="M 16 19 C 16 21.761719 13.761719 24 11 24 C 8.238281 24 6 21.761719 6 19 C 6 16.238281 8.238281 14 11 14 C 13.761719 14 16 16.238281 16 19 Z "/>
<path style=" fill:#FF4081;" d="M 42 19 C 42 21.761719 39.761719 24 37 24 C 34.238281 24 32 21.761719 32 19 C 32 16.238281 34.238281 14 37 14 C 39.761719 14 42 16.238281 42 19 Z "/>
<path style=" fill:#FF4081;" d="M 22 19 C 22 21.761719 19.761719 24 17 24 C 14.238281 24 12 21.761719 12 19 C 12 16.238281 14.238281 14 17 14 C 19.761719 14 22 16.238281 22 19 Z "/>
<path style=" fill:#FF4081;" d="M 36 19 C 36 21.761719 33.761719 24 31 24 C 28.238281 24 26 21.761719 26 19 C 26 16.238281 28.238281 14 31 14 C 33.761719 14 36 16.238281 36 19 Z "/>
<path style=" fill:#FF4081;" d="M 29 19 C 29 21.761719 26.761719 24 24 24 C 21.238281 24 19 21.761719 19 19 C 19 16.238281 21.238281 14 24 14 C 26.761719 14 29 16.238281 29 19 Z "/>
<path style=" fill:#FF4081;" d="M 29 41 C 29 43.761719 26.761719 46 24 46 C 21.238281 46 19 43.761719 19 41 C 19 38.238281 21.238281 36 24 36 C 26.761719 36 29 38.238281 29 41 Z "/>
<path style=" fill:#FF4081;" d="M 34 38 C 34 40.761719 31.761719 43 29 43 C 26.238281 43 24 40.761719 24 38 C 24 35.238281 26.238281 33 29 33 C 31.761719 33 34 35.238281 34 38 Z "/>
<path style=" fill:#FF4081;" d="M 24 38 C 24 40.761719 21.761719 43 19 43 C 16.238281 43 14 40.761719 14 38 C 14 35.238281 16.238281 33 19 33 C 21.761719 33 24 35.238281 24 38 Z "/>
<path style=" fill:#C51162;" d="M 24 38 C 23.800781 37.898438 23.699219 37.898438 23.601563 37.898438 C 23.699219 38 23.898438 38 24 38 Z "/>
<path style=" fill:#C51162;" d="M 42 19 C 42 16.199219 39.800781 14 37 14 C 38.699219 14 40 17.300781 40 19 C 40 20.699219 38.699219 22 37 22 C 36.398438 22 35.800781 21.800781 35.300781 21.5 C 35.699219 20.800781 36 19.898438 36 19 C 36 17.800781 35.601563 16.699219 34.898438 15.898438 C 35.398438 14.898438 36.199219 14 37 14 C 35.898438 14 34.800781 14.398438 34 15 C 33.199219 14.398438 32.101563 14 31 14 C 32.699219 14 34 17.300781 34 19 C 34 20.699219 32.699219 22 31 22 C 30 22 29.199219 21.5 28.601563 20.800781 C 28.800781 20.199219 29 19.601563 29 19 C 29 18.199219 28.800781 17.5 28.5 16.800781 C 29 15.398438 29.898438 14 31 14 C 29.601563 14 28.398438 14.601563 27.5 15.398438 C 26.601563 14.601563 25.398438 14 24 14 C 25.699219 14 27 17.300781 27 19 C 27 20.699219 25.699219 22 24 22 C 22.300781 22 21 20.699219 21 19 C 21 17.300781 22.300781 14 24 14 C 22.601563 14 21.398438 14.601563 20.5 15.398438 C 19.601563 14.601563 18.398438 14 17 14 C 18.101563 14 19 15.398438 19.5 16.800781 C 19.199219 17.5 19 18.199219 19 19 C 19 19.601563 19.101563 20.300781 19.398438 20.800781 C 18.800781 21.5 18 22 17 22 C 15.300781 22 14 20.699219 14 19 C 14 17.300781 15.300781 14 17 14 C 15.898438 14 14.800781 14.398438 14 15 C 13.199219 14.398438 12.101563 14 11 14 C 11.800781 14 12.601563 14.800781 13.101563 15.898438 C 12.398438 16.699219 12 17.800781 12 19 C 12 19.898438 12.199219 20.699219 12.699219 21.5 C 12.199219 21.800781 11.699219 22 11 22 C 9.300781 22 8 20.699219 8 19 C 8 17.300781 9.300781 14 11 14 C 8.199219 14 6 16.199219 6 19 C 6 20.601563 6.800781 22.101563 8 23 C 7.398438 23.800781 7 24.898438 7 26 C 7 28.199219 8.5 30.101563 10.5 30.800781 C 10.199219 31.398438 10 32.199219 10 33 C 10 35.398438 11.699219 37.398438 14 37.898438 C 14 37.898438 14 38 14 38 C 14 40.800781 16.199219 43 19 43 C 19.101563 43 19.300781 43 19.398438 43 C 20.199219 44.800781 21.898438 46 24 46 C 26.101563 46 27.800781 44.699219 28.601563 43 C 28.699219 43 28.898438 43 29 43 C 31.800781 43 34 40.800781 34 38 C 34 38 34 37.898438 34 37.898438 C 36.300781 37.398438 38 35.398438 38 33 C 38 32.199219 37.800781 31.398438 37.398438 30.800781 C 39.5 30.199219 41 28.300781 41 26 C 41 24.898438 40.601563 23.800781 40 23 C 41.199219 22.101563 42 20.601563 42 19 Z M 26.101563 23.5 C 26.601563 23.300781 27.101563 22.898438 27.5 22.5 C 28.199219 23.199219 29.101563 23.699219 30.101563 23.898438 C 30.601563 24.898438 31 26.199219 31 27 C 31 28.699219 29.699219 30 28 30 C 26.300781 30 25 28.699219 25 27 C 25 26.101563 25.398438 24.601563 26.101563 23.5 Z M 24 24 Z M 24 30 C 24.601563 30.800781 25.5 31.5 26.5 31.800781 C 26.800781 32.601563 27 33.398438 27 34.101563 C 27 35.800781 25.699219 37.101563 24 37.101563 C 22.300781 37.101563 21 35.800781 21 34.101563 C 21 33.5 21.199219 32.699219 21.5 31.800781 C 22.5 31.398438 23.398438 30.800781 24 30 Z M 17.898438 23.898438 C 18.898438 23.699219 19.800781 23.199219 20.5 22.5 C 20.898438 22.898438 21.398438 23.199219 21.898438 23.5 C 22.601563 24.601563 23 26 23 27 C 23 28.699219 21.699219 30 20 30 C 18.300781 30 17 28.699219 17 27 C 17 26.199219 17.300781 25 17.898438 23.898438 Z M 9 26 C 9 25.398438 9.199219 24.601563 9.5 23.699219 C 10 23.898438 10.5 24 11 24 C 12.101563 24 13.199219 23.601563 14 23 C 14.101563 23.101563 14.199219 23.101563 14.300781 23.199219 C 14.800781 24.199219 15 25.300781 15 26 C 15 27.699219 13.699219 29 12 29 C 10.300781 29 9 27.699219 9 26 Z M 15 36 C 13.300781 36 12 34.699219 12 33 C 12 32.398438 12.199219 31.699219 12.398438 31 C 13.699219 30.898438 14.800781 30.300781 15.601563 29.398438 C 16.101563 30.300781 16.800781 31 17.699219 31.398438 C 17.898438 32 18 32.601563 18 33 C 18 34.699219 16.699219 36 15 36 Z M 16 38 C 16 38 16 37.898438 16 37.898438 C 17.398438 37.601563 18.5 36.800781 19.199219 35.601563 C 19.398438 36.101563 19.601563 36.601563 20 37 L 21.300781 38.199219 C 21.5 38.300781 21.699219 38.398438 21.898438 38.5 C 21.699219 39.898438 20.5 41 19 41 C 17.300781 41 16 39.699219 16 38 Z M 24 44 C 22.898438 44 21.898438 43.300781 21.398438 42.398438 C 22.699219 41.699219 23.601563 40.5 23.898438 39 C 23.898438 39 24 39 24 39 C 24 39 24.101563 39 24.101563 39 C 24.398438 40.5 25.398438 41.699219 26.601563 42.398438 C 26.101563 43.300781 25.101563 44 24 44 Z M 29 41 C 27.5 41 26.300781 39.898438 26.101563 38.5 C 26.300781 38.398438 26.5 38.300781 26.699219 38.199219 L 28 37 C 28.300781 36.601563 28.601563 36.101563 28.800781 35.601563 C 29.5 36.699219 30.601563 37.601563 32 37.898438 L 32.101563 37.898438 C 32.101563 37.898438 32.101563 38 32.101563 38 C 32 39.699219 30.699219 41 29 41 Z M 33 36 C 31.300781 36 30 34.699219 30 33 C 30 32.601563 30.101563 32 30.300781 31.398438 C 31.199219 30.898438 31.898438 30.199219 32.398438 29.398438 C 33.199219 30.300781 34.398438 30.800781 35.601563 31 C 35.898438 31.699219 36 32.5 36 33 C 36 34.699219 34.699219 36 33 36 Z M 36 29 C 34.300781 29 33 27.699219 33 26 C 33 25.199219 33.300781 24.199219 33.699219 23.199219 C 33.800781 23.101563 33.898438 23.101563 34 23 C 34.800781 23.601563 35.898438 24 37 24 C 37.5 24 38 23.898438 38.5 23.699219 C 38.800781 24.5 39 25.300781 39 26 C 39 27.699219 37.699219 29 36 29 Z "/>
</g>
</svg>
