<?xml version="1.0" encoding="UTF-8"?>
<svg xmlns="http://www.w3.org/2000/svg" xmlns:xlink="http://www.w3.org/1999/xlink" viewBox="0 0 48 48" version="1.1" width="48px" height="48px">
<g id="surface1">
<path style=" fill:#FFC400;" d="M 38 33.5 C 38 27.148438 31.730469 22 24 22 C 16.269531 22 10 27.148438 10 33.5 C 10 39.851563 16.269531 45 24 45 C 31.730469 45 38 39.851563 38 33.5 Z "/>
<path style=" fill:#FFC400;" d="M 38 34 C 38 26 32 24 31 18 C 30.363281 14.1875 27.867188 11 24 11 C 20.132813 11 17.636719 14.1875 17 18 C 16 24 10 26 10 34 "/>
<path style="fill:#FFFFFF;stroke-width:2;stroke-linecap:butt;stroke-linejoin:miter;stroke:#795548;stroke-opacity:1;stroke-miterlimit:10;" d="M 27 5 C 27 5 24 8 24 13 "/>
<path style=" fill:#795548;" d="M 25 13 C 25 13.550781 24.550781 14 24 14 C 23.449219 14 23 13.550781 23 13 C 23 12.449219 23.449219 12 24 12 C 24.550781 12 25 12.449219 25 13 Z "/>
<path style=" fill:#4CAF50;" d="M 24 14.035156 C 24 14.035156 22.75 1.5 10 6 C 11.375 19.042969 24 14.035156 24 14.035156 Z "/>
<path style=" fill:#FFAB00;" d="M 37.777344 31.519531 C 36.699219 25.507813 31.886719 23.324219 31 18 C 30.484375 14.914063 28.753906 12.242188 26.0625 11.335938 C 28.238281 12.765625 29 18.519531 29 22 C 29 26 33 28 33 32 C 33 36 29 41 23 41 C 11.894531 41 10.210938 34.148438 10.019531 33.132813 C 10.015625 33.253906 10 33.375 10 33.5 C 10 33.574219 10.011719 33.644531 10.015625 33.71875 C 10.011719 33.8125 10 33.902344 10 34 L 10.03125 34 C 10.351563 40.117188 16.472656 45 24 45 C 31.527344 45 37.648438 40.117188 37.96875 34 L 38 34 C 38 33.902344 37.988281 33.8125 37.984375 33.71875 C 37.988281 33.644531 38 33.574219 38 33.5 C 38 32.820313 37.914063 32.160156 37.777344 31.519531 Z "/>
<path style=" fill:#FF9100;" d="M 31 32 C 31 32.550781 30.550781 33 30 33 C 29.449219 33 29 32.550781 29 32 C 29 31.449219 29.449219 31 30 31 C 30.550781 31 31 31.449219 31 32 Z "/>
<path style=" fill:#FF9100;" d="M 27 32 C 27 32.550781 26.550781 33 26 33 C 25.449219 33 25 32.550781 25 32 C 25 31.449219 25.449219 31 26 31 C 26.550781 31 27 31.449219 27 32 Z "/>
<path style=" fill:#FF9100;" d="M 29 35 C 29 35.550781 28.550781 36 28 36 C 27.449219 36 27 35.550781 27 35 C 27 34.449219 27.449219 34 28 34 C 28.550781 34 29 34.449219 29 35 Z "/>
</g>
</svg>
