<?xml version="1.0" encoding="UTF-8"?>
<svg xmlns="http://www.w3.org/2000/svg" xmlns:xlink="http://www.w3.org/1999/xlink" viewBox="0 0 48 48" version="1.1" width="48px" height="48px">
<g id="surface1">
<path style=" fill:#DCEDC8;" d="M 4 24 C 4 13 13 4 24 4 C 35 4 44 13 44 24 C 44 35 35 44 24 44 C 13 44 4 35 4 24 Z "/>
<path style=" fill:#558B2F;" d="M 15.101563 17.300781 C 20 11.601563 32.300781 12 35 12 C 32.300781 15.699219 35.5 27 29.800781 31.898438 C 25.800781 35.398438 21.300781 35 18.601563 28.398438 C 12.898438 27.699219 11.601563 21.300781 15.101563 17.300781 Z "/>
<path style=" fill:#7CB342;" d="M 35 12 C 32 13.5 26.398438 17.601563 18.5 28.398438 C 18.601563 28.699219 18.601563 28.699219 18.5 28.398438 C 17.898438 28.300781 17.300781 28.199219 16.800781 27.898438 C 15.300781 30.898438 14.699219 33.699219 15 35.601563 C 15.101563 36.300781 15.800781 36.898438 16.5 36.898438 C 16.601563 36.898438 16.699219 36.898438 16.699219 36.898438 C 17.5 36.800781 18.101563 36 17.898438 35.199219 C 17.898438 35.199219 17.898438 32.800781 19.101563 29.898438 C 21.800781 34.898438 25.898438 35 29.601563 31.898438 C 35.5 27 32.300781 15.699219 35 12 Z "/>
</g>
</svg>
