<?xml version="1.0" encoding="UTF-8"?>
<svg xmlns="http://www.w3.org/2000/svg" xmlns:xlink="http://www.w3.org/1999/xlink" viewBox="0 0 48 48" version="1.1" width="48px" height="48px">
<g id="surface1">
<path style=" fill:#795548;" d="M 36.023438 36.019531 C 44.222656 27.820313 45.488281 15.789063 38.851563 9.152344 C 32.210938 2.511719 20.179688 3.777344 11.980469 11.980469 C 3.78125 20.179688 2.511719 32.210938 9.152344 38.847656 C 15.789063 45.488281 27.820313 44.222656 36.023438 36.019531 Z "/>
<path style=" fill:#8BC34A;" d="M 27.992188 6.894531 C 31.769531 6.894531 35.035156 8.164063 37.433594 10.566406 C 43.285156 16.414063 42.015625 27.199219 34.605469 34.609375 C 30.476563 38.738281 25.15625 41.105469 20.011719 41.105469 C 16.230469 41.105469 12.964844 39.835938 10.5625 37.4375 C 7.789063 34.660156 6.519531 30.671875 6.988281 26.210938 C 7.476563 21.589844 9.75 17.035156 13.394531 13.394531 C 17.523438 9.265625 22.84375 6.894531 27.992188 6.894531 "/>
<path style=" fill:#689F38;" d="M 11.84375 31.941406 C 11.335938 30.949219 11.71875 29.75 12.699219 29.246094 C 13.691406 28.738281 18.304688 27.972656 18.304688 27.972656 C 18.304688 27.972656 15.515625 32.300781 14.53125 32.804688 C 13.738281 33.214844 12.800781 33.035156 12.207031 32.441406 C 12.058594 32.292969 11.9375 32.132813 11.84375 31.941406 Z M 15.386719 33.660156 C 15.882813 32.667969 19.953125 29.652344 19.953125 29.652344 C 19.953125 29.652344 19.453125 34.484375 18.949219 35.46875 C 18.449219 36.449219 17.246094 36.847656 16.257813 36.339844 C 16.257813 36.339844 16.257813 36.339844 16.265625 36.34375 C 16.066406 36.246094 15.898438 36.117188 15.753906 35.976563 C 15.152344 35.378906 14.984375 34.441406 15.386719 33.660156 Z M 10.644531 25.972656 C 10.707031 24.863281 11.65625 24.027344 12.757813 24.085938 C 13.859375 24.140625 17.640625 25.613281 17.640625 25.613281 C 17.640625 25.613281 13.632813 28.144531 12.523438 28.078125 C 12.015625 28.050781 11.570313 27.832031 11.230469 27.492188 C 10.839844 27.105469 10.613281 26.566406 10.644531 25.972656 Z M 20.117188 35.644531 C 20.046875 34.542969 22.71875 30.367188 22.71875 30.367188 C 22.71875 30.367188 24.042969 34.308594 24.105469 35.40625 C 24.171875 36.515625 23.328125 37.457031 22.226563 37.527344 C 21.632813 37.554688 21.078125 37.328125 20.691406 36.9375 C 20.359375 36.605469 20.144531 36.152344 20.117188 35.644531 Z M 12.15625 20.316406 C 12.636719 19.324219 13.832031 18.90625 14.828125 19.394531 C 15.824219 19.871094 18.101563 22.886719 18.101563 22.886719 C 18.101563 22.886719 14.078125 23.46875 13.082031 22.992188 C 12.878906 22.890625 12.691406 22.761719 12.539063 22.605469 C 11.949219 22.019531 11.773438 21.105469 12.15625 20.316406 Z M 25.203125 35.085938 C 24.714844 34.089844 25.308594 29.824219 25.308594 29.824219 C 25.308594 29.824219 28.320313 32.335938 28.800781 33.328125 C 29.273438 34.324219 28.871094 35.519531 27.875 36.007813 C 27.089844 36.382813 26.171875 36.210938 25.582031 35.625 C 25.429688 35.46875 25.300781 35.285156 25.203125 35.085938 Z M 15.492188 15.648438 C 16.269531 14.871094 17.535156 14.863281 18.320313 15.648438 C 19.097656 16.425781 19.914063 20.070313 19.914063 20.070313 C 19.914063 20.070313 16.277344 19.261719 15.492188 18.476563 C 14.714844 17.699219 14.710938 16.433594 15.492188 15.648438 Z M 28.007813 28.007813 C 28.007813 28.007813 31.785156 29.015625 32.570313 29.800781 C 33.347656 30.574219 33.355469 31.84375 32.570313 32.628906 C 32.5625 32.632813 32.554688 32.640625 32.550781 32.648438 C 32.550781 32.648438 32.539063 32.65625 32.535156 32.664063 C 31.757813 33.441406 30.488281 33.445313 29.707031 32.664063 C 28.929688 31.882813 28.007813 28.007813 28.007813 28.007813 Z M 19.226563 14.984375 C 18.738281 13.988281 19.15625 12.792969 20.152344 12.304688 C 21.136719 11.816406 22.339844 12.226563 22.828125 13.222656 C 23.308594 14.210938 22.652344 18.191406 22.652344 18.191406 C 22.652344 18.191406 19.578125 15.867188 19.226563 14.984375 Z M 34.976563 25.285156 C 35.964844 25.765625 36.390625 26.953125 35.902344 27.953125 C 35.421875 28.941406 34.226563 29.359375 33.226563 28.886719 C 32.175781 28.375 29.851563 25.242188 29.851563 25.242188 C 29.851563 25.242188 33.976563 24.800781 34.976563 25.285156 Z M 23.921875 12.890625 C 23.851563 11.789063 24.6875 10.839844 25.789063 10.769531 C 25.789063 10.769531 25.789063 10.769531 25.796875 10.777344 C 26.898438 10.707031 27.847656 11.542969 27.910156 12.652344 C 27.972656 13.746094 25.589844 17.640625 25.589844 17.640625 C 25.589844 17.640625 23.949219 13.398438 23.921875 12.890625 Z M 30.359375 22.449219 C 30.359375 22.449219 34.414063 20.132813 35.519531 20.1875 C 36.613281 20.253906 37.460938 21.199219 37.398438 22.292969 C 37.34375 23.398438 36.347656 24.101563 35.300781 24.183594 C 34.253906 24.265625 30.359375 22.449219 30.359375 22.449219 Z M 29.078125 12.8125 C 29.578125 11.832031 30.78125 11.433594 31.765625 11.9375 C 32.746094 12.4375 33.144531 13.640625 32.640625 14.621094 C 32.148438 15.613281 28.023438 18.121094 28.023438 18.121094 C 28.023438 18.121094 28.675781 13.613281 29.078125 12.8125 Z M 33.503906 15.472656 C 34.480469 14.964844 35.6875 15.351563 36.195313 16.328125 C 36.699219 17.308594 36.324219 18.519531 35.335938 19.027344 C 34.542969 19.4375 29.542969 19.789063 29.542969 19.789063 C 29.542969 19.789063 32.515625 15.980469 33.503906 15.472656 Z "/>
<path style=" fill:#5D4037;" d="M 30.296875 30.332031 C 30.722656 29.90625 30.722656 29.273438 30.332031 28.882813 C 30.101563 28.660156 29.113281 28.25 27.90625 27.855469 C 28.273438 29.085938 28.664063 30.097656 28.882813 30.335938 C 29.273438 30.722656 29.90625 30.722656 30.296875 30.332031 Z "/>
<path style=" fill:#5D4037;" d="M 21.617188 33.667969 C 21.820313 33.871094 22.101563 33.980469 22.394531 33.964844 C 22.945313 33.929688 23.359375 33.460938 23.328125 32.898438 C 23.304688 32.492188 23.003906 31.378906 22.652344 30.214844 C 21.929688 31.484375 21.359375 32.65625 21.335938 33.042969 C 21.351563 33.277344 21.445313 33.5 21.617188 33.667969 Z "/>
<path style=" fill:#5D4037;" d="M 26.707031 33.046875 C 27.195313 32.808594 27.402344 32.203125 27.160156 31.699219 C 27.140625 31.65625 26.984375 31.375 26.214844 30.605469 C 25.941406 30.332031 25.644531 30.050781 25.355469 29.785156 C 25.246094 31.140625 25.242188 32.289063 25.367188 32.597656 C 25.414063 32.691406 25.480469 32.789063 25.554688 32.863281 C 25.855469 33.160156 26.316406 33.234375 26.707031 33.046875 Z "/>
<path style=" fill:#5D4037;" d="M 32.652344 25.316406 C 32.351563 25.1875 31.234375 25.15625 29.910156 25.222656 C 30.277344 25.664063 30.6875 26.136719 31.070313 26.515625 C 31.542969 26.988281 31.742188 27.097656 31.777344 27.117188 C 32.269531 27.351563 32.875 27.140625 33.113281 26.644531 C 33.300781 26.265625 33.222656 25.808594 32.925781 25.511719 C 32.847656 25.433594 32.753906 25.367188 32.652344 25.316406 Z "/>
<path style=" fill:#5D4037;" d="M 20.144531 29.429688 C 18.945313 30.398438 17.9375 31.300781 17.753906 31.632813 C 17.550781 32.019531 17.625 32.484375 17.933594 32.789063 C 18.007813 32.863281 18.089844 32.925781 18.183594 32.972656 L 18.183594 32.96875 C 18.425781 33.09375 18.695313 33.113281 18.949219 33.03125 C 19.203125 32.949219 19.410156 32.773438 19.53125 32.535156 C 19.699219 32.203125 19.9375 30.910156 20.144531 29.429688 Z "/>
<path style=" fill:#5D4037;" d="M 32.347656 19.464844 C 32.824219 19.21875 33.015625 18.609375 32.761719 18.113281 C 32.71875 18.03125 32.65625 17.949219 32.585938 17.878906 C 32.277344 17.570313 31.800781 17.492188 31.421875 17.691406 C 31.097656 17.863281 30.214844 18.804688 29.261719 19.921875 C 30.738281 19.777344 32.023438 19.601563 32.347656 19.464844 Z "/>
<path style=" fill:#5D4037;" d="M 32.769531 23.285156 C 33.328125 23.242188 33.910156 22.90625 33.941406 22.34375 C 33.957031 22.058594 33.851563 21.78125 33.648438 21.578125 C 33.472656 21.40625 33.242188 21.300781 33 21.285156 C 32.632813 21.300781 31.460938 21.808594 30.1875 22.453125 C 31.359375 22.933594 32.425781 23.296875 32.769531 23.285156 Z "/>
<path style=" fill:#5D4037;" d="M 15.289063 30.222656 C 15.589844 30.527344 16.066406 30.601563 16.449219 30.402344 C 16.773438 30.203125 17.621094 29.132813 18.515625 27.871094 C 17.101563 28.152344 15.878906 28.445313 15.53125 28.625 C 15.296875 28.746094 15.121094 28.949219 15.042969 29.199219 C 14.960938 29.453125 14.984375 29.726563 15.109375 29.972656 C 15.160156 30.074219 15.214844 30.148438 15.289063 30.222656 Z "/>
<path style=" fill:#5D4037;" d="M 17.757813 19.289063 C 17.984375 19.503906 18.933594 19.867188 20.082031 20.199219 C 19.746094 19.050781 19.382813 18.097656 19.171875 17.871094 C 18.78125 17.484375 18.144531 17.484375 17.757813 17.875 C 17.367188 18.265625 17.367188 18.898438 17.757813 19.289063 Z "/>
<path style=" fill:#5D4037;" d="M 15.628906 23.035156 C 15.90625 23.144531 16.988281 23.136719 18.273438 23.027344 C 17.929688 22.613281 17.542969 22.175781 17.183594 21.820313 C 16.699219 21.335938 16.507813 21.234375 16.488281 21.226563 C 16.238281 21.101563 15.964844 21.085938 15.714844 21.171875 C 15.460938 21.261719 15.257813 21.441406 15.144531 21.679688 C 14.957031 22.066406 15.035156 22.527344 15.332031 22.828125 C 15.40625 22.902344 15.507813 22.972656 15.628906 23.035156 Z "/>
<path style=" fill:#5D4037;" d="M 28.011719 18.082031 C 29.199219 17.273438 30.210938 16.5 30.40625 16.175781 C 30.601563 15.796875 30.527344 15.328125 30.21875 15.023438 C 30.144531 14.949219 30.058594 14.886719 29.960938 14.839844 C 29.472656 14.589844 28.871094 14.785156 28.621094 15.277344 C 28.484375 15.5625 28.246094 16.730469 28.011719 18.082031 Z "/>
<path style=" fill:#5D4037;" d="M 20.878906 16.511719 L 20.894531 16.546875 L 20.90625 16.578125 C 20.910156 16.582031 21.003906 16.753906 21.417969 17.167969 C 21.777344 17.523438 22.226563 17.917969 22.648438 18.273438 C 22.777344 17.003906 22.796875 15.921875 22.675781 15.621094 C 22.632813 15.527344 22.566406 15.4375 22.488281 15.359375 C 22.1875 15.054688 21.730469 14.980469 21.351563 15.167969 C 20.84375 15.414063 20.636719 16.015625 20.878906 16.511719 Z "/>
<path style=" fill:#5D4037;" d="M 25.53125 17.679688 C 26.160156 16.507813 26.652344 15.433594 26.667969 15.066406 C 26.648438 14.769531 26.5 14.558594 26.378906 14.433594 C 26.179688 14.234375 25.902344 14.128906 25.613281 14.148438 L 25.484375 14.15625 C 25.265625 14.199219 25.070313 14.308594 24.921875 14.476563 C 24.75 14.671875 24.664063 14.914063 24.671875 15.171875 C 24.730469 15.457031 25.09375 16.488281 25.53125 17.679688 Z "/>
<path style=" fill:#5D4037;" d="M 15.246094 24.847656 C 14.691406 24.820313 14.214844 25.242188 14.183594 25.792969 C 14.171875 26.074219 14.273438 26.347656 14.480469 26.550781 C 14.660156 26.734375 14.878906 26.832031 15.121094 26.847656 C 15.492188 26.828125 16.632813 26.28125 17.863281 25.59375 C 16.738281 25.203125 15.648438 24.867188 15.246094 24.847656 Z "/>
<path style=" fill:#E6EE9C;" d="M 28.007813 28.007813 C 30.742188 25.273438 31.164063 21.261719 28.953125 19.050781 C 26.738281 16.835938 22.730469 17.257813 19.996094 19.992188 C 17.261719 22.726563 16.839844 26.738281 19.050781 28.949219 C 21.265625 31.164063 25.277344 30.742188 28.007813 28.007813 Z "/>
</g>
</svg>
