<?xml version="1.0" encoding="UTF-8"?>
<svg xmlns="http://www.w3.org/2000/svg" xmlns:xlink="http://www.w3.org/1999/xlink" viewBox="0 0 48 48" version="1.1" width="48px" height="48px">
<g id="surface1">
<path style=" fill:#8BC34A;" d="M 29.199219 18.039063 C 29.445313 16.3125 30.046875 14.933594 30.753906 13.660156 C 31.472656 12.398438 32.335938 11.277344 33.316406 10.269531 C 34.296875 9.265625 35.402344 8.382813 36.644531 7.632813 C 37.902344 6.898438 39.273438 6.273438 41 6 C 40.761719 7.730469 40.160156 9.113281 39.453125 10.386719 C 38.730469 11.644531 37.871094 12.769531 36.886719 13.769531 C 35.902344 14.773438 34.796875 15.65625 33.550781 16.402344 C 32.289063 17.136719 30.925781 17.761719 29.199219 18.039063 Z "/>
<path style=" fill:#7CB342;" d="M 43 13 C 41.929688 14.386719 40.722656 15.296875 39.472656 16.058594 C 38.214844 16.804688 36.90625 17.359375 35.546875 17.753906 C 34.191406 18.152344 32.785156 18.378906 31.324219 18.417969 C 29.859375 18.441406 28.351563 18.316406 26.707031 17.707031 C 27.773438 16.3125 28.984375 15.402344 30.234375 14.640625 C 31.492188 13.898438 32.800781 13.339844 34.160156 12.953125 C 35.519531 12.5625 36.925781 12.335938 38.382813 12.296875 C 39.847656 12.273438 41.355469 12.398438 43 13 Z "/>
<path style=" fill:#7CB342;" d="M 29.535156 20.535156 C 28.90625 18.886719 28.761719 17.367188 28.761719 15.890625 C 28.777344 14.414063 28.988281 12.992188 29.355469 11.617188 C 29.722656 10.238281 30.261719 8.902344 30.988281 7.621094 C 31.730469 6.34375 32.621094 5.105469 34 4 C 34.632813 5.648438 34.78125 7.167969 34.78125 8.644531 C 34.761719 10.117188 34.554688 11.542969 34.179688 12.917969 C 33.804688 14.296875 33.269531 15.628906 32.542969 16.910156 C 31.796875 18.1875 30.90625 19.429688 29.535156 20.535156 Z "/>
<path style=" fill:#558B2F;" d="M 43 19 C 41.523438 19.949219 40.074219 20.402344 38.636719 20.707031 C 37.195313 20.988281 35.769531 21.074219 34.355469 20.996094 C 32.9375 20.914063 31.53125 20.664063 30.136719 20.214844 C 28.738281 19.746094 27.355469 19.125 26 18 C 27.476563 17.042969 28.925781 16.589844 30.363281 16.289063 C 31.804688 16.007813 33.230469 15.917969 34.644531 16.007813 C 36.0625 16.09375 37.46875 16.347656 38.863281 16.796875 C 40.257813 17.265625 41.644531 17.882813 43 19 Z "/>
<path style=" fill:#558B2F;" d="M 29 4 C 29.949219 5.398438 30.402344 6.765625 30.703125 8.121094 C 30.988281 9.480469 31.074219 10.824219 30.992188 12.15625 C 30.914063 13.488281 30.660156 14.8125 30.210938 16.125 C 29.742188 17.433594 29.121094 18.734375 28 20 C 27.042969 18.601563 26.589844 17.234375 26.289063 15.878906 C 26.007813 14.523438 25.917969 13.179688 26.007813 11.84375 C 26.09375 10.511719 26.347656 9.1875 26.796875 7.878906 C 27.265625 6.570313 27.882813 5.269531 29 4 Z "/>
<path style=" fill:#F9A825;" d="M 29.3125 34.71875 C 31.695313 32.332031 33.027344 28.898438 33.0625 25.402344 C 33.082031 23.589844 31.757813 19.839844 30.230469 18.25 C 29.550781 17.570313 29.519531 17.539063 29.519531 17.539063 L 28.625 16.644531 C 28.625 16.644531 26.207031 14.027344 21.875 14.027344 C 18.304688 14.027344 14.769531 15.320313 12.34375 17.746094 C 12.179688 17.910156 8.882813 21.203125 8.71875 21.367188 C 3.921875 26.167969 3.828125 33.859375 8.511719 38.546875 C 13.199219 43.230469 20.890625 43.140625 25.691406 38.339844 C 25.792969 38.234375 29.210938 34.820313 29.3125 34.71875 Z "/>
<path style=" fill:#C68632;" d="M 22.074219 40.847656 C 22.078125 40.847656 22.078125 40.847656 22.078125 40.847656 C 23.042969 40.402344 23.964844 39.839844 24.8125 39.132813 C 23.914063 38.949219 23.023438 38.863281 22.367188 38.832031 C 22.3125 37.679688 22.109375 35.785156 21.4375 34.414063 C 23.019531 34.480469 25.058594 34.808594 25.726563 35.476563 C 26.089844 35.839844 26.351563 36.617188 26.523438 37.503906 C 27.019531 37.011719 27.652344 36.378906 28.191406 35.839844 C 28.097656 35.566406 27.992188 35.300781 27.871094 35.050781 C 28.199219 35.066406 28.546875 35.09375 28.898438 35.132813 C 29.132813 34.894531 29.292969 34.738281 29.3125 34.71875 C 29.746094 34.28125 30.140625 33.816406 30.503906 33.316406 C 29.640625 33.148438 28.792969 33.070313 28.164063 33.039063 C 28.105469 31.882813 27.902344 29.992188 27.230469 28.621094 C 28.8125 28.6875 30.851563 29.015625 31.519531 29.683594 C 31.714844 29.878906 31.878906 30.203125 32.015625 30.589844 C 33.0625 28.03125 33.34375 25.109375 32.746094 22.339844 C 32 19.8125 29.519531 17.539063 29.519531 17.539063 C 30.042969 18.0625 30.355469 19.441406 30.496094 20.773438 C 29.257813 20.363281 27.828125 20.21875 26.886719 20.171875 C 26.839844 19.230469 26.695313 17.800781 26.28125 16.558594 C 27.617188 16.703125 28.992188 17.015625 29.519531 17.539063 C 29.519531 17.539063 27.582031 14.980469 24.796875 14.363281 C 22.011719 13.746094 19.066406 14.007813 16.492188 15.046875 C 16.867188 15.183594 17.183594 15.347656 17.375 15.539063 C 18.039063 16.203125 18.371094 18.246094 18.4375 19.824219 C 17.066406 19.15625 15.175781 18.953125 14.019531 18.894531 C 13.988281 18.265625 13.910156 17.417969 13.742188 16.558594 C 13.242188 16.917969 12.773438 17.3125 12.339844 17.746094 C 12.308594 17.777344 12.152344 17.933594 11.925781 18.160156 C 11.964844 18.511719 11.992188 18.859375 12.003906 19.1875 C 11.757813 19.066406 11.492188 18.960938 11.21875 18.867188 C 10.679688 19.40625 10.046875 20.039063 9.554688 20.53125 C 10.441406 20.707031 11.21875 20.96875 11.582031 21.332031 C 12.246094 22 12.578125 24.039063 12.644531 25.621094 C 11.273438 24.949219 9.378906 24.746094 8.226563 24.6875 C 8.191406 24.035156 8.109375 23.140625 7.925781 22.242188 C 7.21875 23.09375 6.65625 24.015625 6.210938 24.976563 C 6.210938 24.980469 6.210938 24.980469 6.210938 24.980469 C 5.917969 25.613281 5.679688 26.261719 5.5 26.921875 C 5.605469 26.984375 5.714844 27.050781 5.785156 27.125 C 6.453125 27.792969 6.78125 29.832031 6.847656 31.414063 C 6.316406 31.152344 5.703125 30.96875 5.089844 30.832031 C 5.128906 31.570313 5.238281 32.304688 5.417969 33.023438 C 5.851563 33.171875 6.210938 33.347656 6.425781 33.558594 C 7.019531 34.152344 7.34375 35.828125 7.453125 37.308594 C 7.777344 37.734375 8.121094 38.152344 8.511719 38.542969 C 8.902344 38.933594 9.320313 39.277344 9.746094 39.601563 C 11.226563 39.710938 12.902344 40.039063 13.496094 40.628906 C 13.710938 40.84375 13.882813 41.203125 14.03125 41.636719 C 14.753906 41.816406 15.484375 41.925781 16.222656 41.96875 C 16.085938 41.351563 15.902344 40.738281 15.640625 40.207031 C 17.222656 40.273438 19.261719 40.601563 19.929688 41.269531 C 20.003906 41.34375 20.070313 41.449219 20.136719 41.554688 C 20.796875 41.375 21.445313 41.136719 22.074219 40.847656 C 22.078125 40.847656 22.078125 40.847656 22.074219 40.847656 Z M 26.148438 33.335938 C 24.777344 32.664063 22.886719 32.457031 21.730469 32.398438 C 21.671875 31.242188 21.464844 29.351563 20.792969 27.980469 C 22.378906 28.046875 24.421875 28.375 25.085938 29.042969 C 25.753906 29.710938 26.085938 31.753906 26.148438 33.335938 Z M 19.71875 32.695313 C 18.34375 32.027344 16.453125 31.820313 15.296875 31.761719 C 15.238281 30.605469 15.03125 28.714844 14.363281 27.34375 C 15.945313 27.40625 17.988281 27.738281 18.652344 28.40625 C 19.320313 29.070313 19.648438 31.113281 19.71875 32.695313 Z M 30.882813 23.246094 C 31.546875 23.914063 31.878906 25.953125 31.945313 27.535156 C 30.574219 26.863281 28.679688 26.664063 27.527344 26.605469 C 27.46875 25.449219 27.265625 23.558594 26.597656 22.1875 C 28.175781 22.253906 30.21875 22.582031 30.882813 23.246094 Z M 25.511719 26.902344 C 24.140625 26.230469 22.25 26.023438 21.09375 25.964844 C 21.035156 24.808594 20.828125 22.921875 20.15625 21.546875 C 21.738281 21.613281 23.78125 21.945313 24.449219 22.609375 C 25.113281 23.277344 25.445313 25.320313 25.511719 26.902344 Z M 19.519531 15.113281 C 21.101563 15.179688 23.144531 15.511719 23.8125 16.175781 C 23.8125 16.175781 23.8125 16.175781 23.8125 16.179688 C 24.476563 16.84375 24.808594 18.886719 24.875 20.46875 C 23.503906 19.800781 21.613281 19.59375 20.457031 19.53125 C 20.398438 18.378906 20.1875 16.488281 19.519531 15.113281 Z M 13.730469 20.910156 C 15.3125 20.976563 17.351563 21.304688 18.015625 21.972656 C 18.683594 22.636719 19.011719 24.679688 19.078125 26.257813 C 17.707031 25.589844 15.816406 25.386719 14.660156 25.328125 C 14.601563 24.175781 14.398438 22.28125 13.730469 20.910156 Z M 7.933594 26.703125 C 9.515625 26.769531 11.558594 27.101563 12.222656 27.765625 C 12.886719 28.433594 13.21875 30.472656 13.285156 32.054688 C 11.914063 31.382813 10.019531 31.179688 8.867188 31.121094 C 8.808594 29.96875 8.605469 28.074219 7.933594 26.703125 Z M 9.503906 37.554688 C 9.445313 36.398438 9.238281 34.511719 8.566406 33.136719 C 10.148438 33.203125 12.191406 33.535156 12.859375 34.199219 C 13.527344 34.867188 13.855469 36.910156 13.921875 38.492188 C 12.550781 37.820313 10.660156 37.613281 9.503906 37.554688 Z M 15.9375 38.191406 C 15.878906 37.039063 15.671875 35.148438 15 33.777344 C 16.582031 33.839844 18.628906 34.171875 19.292969 34.835938 C 19.960938 35.503906 20.289063 37.546875 20.355469 39.132813 C 18.984375 38.460938 17.09375 38.253906 15.9375 38.191406 Z "/>
</g>
</svg>
