<?xml version="1.0" encoding="UTF-8"?>
<svg xmlns="http://www.w3.org/2000/svg" xmlns:xlink="http://www.w3.org/1999/xlink" viewBox="0 0 48 48" version="1.1" width="48px" height="48px">
<g id="surface1">
<path style=" fill:#FF5252;" d="M 22 34 C 21.890625 33.816406 20 29.933594 20 25 C 20 17.828125 25.332031 13.695313 28.8125 11.4375 C 27.886719 11.207031 23 10 19.113281 10 C 12.667969 10 6 15.582031 6 24.925781 C 6 31.980469 9.335938 37.113281 15.914063 40.1875 C 17.121094 40.75 22.632813 42.496094 24 43 C 23.949219 39.769531 22.15625 34.269531 22 34 Z "/>
<path style=" fill:#4CAF50;" d="M 26 12.054688 C 26 12.054688 23.9375 0.667969 8 5 C 15 19 26 12.054688 26 12.054688 Z "/>
<path style=" fill:#2E7D32;" d="M 24.25 12.660156 C 22.441406 10.289063 19.886719 8.507813 17.054688 7.269531 C 15.640625 6.648438 14.15625 6.152344 12.640625 5.773438 C 11.121094 5.398438 9.570313 5.117188 8 5 C 9.578125 4.949219 11.160156 5.066406 12.734375 5.28125 C 14.308594 5.503906 15.875 5.847656 17.40625 6.332031 C 18.9375 6.820313 20.441406 7.457031 21.855469 8.285156 C 23.269531 9.105469 24.609375 10.140625 25.75 11.339844 Z "/>
<path style="fill:none;stroke-width:2;stroke-linecap:round;stroke-linejoin:miter;stroke:#795548;stroke-opacity:1;stroke-miterlimit:4;" d="M 23 6 C 23 6 26 8 26 11 "/>
<path style=" fill:#FF9E80;" d="M 29.144531 10 C 28.90625 10 28.65625 10.019531 28.40625 10.035156 C 24.429688 10.386719 17 14 17 25 C 17 38.34375 24.222656 44 25.03125 44 C 25.332031 44.003906 25.488281 43.804688 25.625 43.542969 C 26.03125 42.757813 27.164063 42.304688 28.730469 41.675781 C 29.730469 41.277344 30.859375 40.824219 32.121094 40.171875 C 39.320313 36.417969 42 31 42 24.097656 C 42 15.664063 36.832031 10 29.144531 10 Z "/>
<path style=" fill:#E53935;" d="M 19.71875 37.675781 C 19.640625 37.519531 19.5625 37.363281 19.484375 37.199219 C 19.359375 36.933594 19.242188 36.652344 19.125 36.371094 C 19.035156 36.15625 18.949219 35.945313 18.863281 35.722656 C 18.757813 35.453125 18.660156 35.175781 18.5625 34.890625 C 18.46875 34.628906 18.382813 34.359375 18.300781 34.085938 C 18.214844 33.808594 18.132813 33.53125 18.054688 33.246094 C 17.96875 32.933594 17.890625 32.605469 17.8125 32.277344 C 17.75 32 17.683594 31.722656 17.625 31.429688 C 17.550781 31.0625 17.488281 30.675781 17.425781 30.285156 C 17.378906 30.007813 17.328125 29.738281 17.292969 29.453125 C 17.230469 29 17.1875 28.523438 17.148438 28.046875 C 17.125 27.800781 17.09375 27.5625 17.078125 27.308594 C 17.027344 26.566406 17 25.796875 17 25 C 17 24.386719 17.03125 23.804688 17.074219 23.238281 C 17.085938 23.109375 17.09375 22.984375 17.105469 22.859375 C 17.15625 22.328125 17.226563 21.8125 17.3125 21.320313 C 17.332031 21.203125 17.359375 21.09375 17.382813 20.976563 C 17.460938 20.582031 17.550781 20.199219 17.648438 19.828125 C 17.683594 19.699219 17.714844 19.570313 17.753906 19.445313 C 17.871094 19.042969 18.003906 18.660156 18.148438 18.285156 C 18.210938 18.121094 18.277344 17.964844 18.34375 17.808594 C 18.460938 17.535156 18.582031 17.273438 18.707031 17.019531 C 18.828125 16.777344 18.960938 16.542969 19.089844 16.3125 C 19.195313 16.128906 19.304688 15.941406 19.414063 15.769531 C 19.53125 15.585938 19.652344 15.40625 19.777344 15.234375 C 19.871094 15.101563 19.96875 14.976563 20.0625 14.847656 C 20.382813 14.433594 20.714844 14.046875 21.058594 13.691406 C 20.613281 13.746094 20.148438 13.777344 19.667969 13.777344 C 19.140625 13.777344 18.589844 13.738281 18.03125 13.652344 C 16.472656 13.414063 14.820313 12.804688 13.1875 11.597656 C 12.296875 12.101563 11.457031 12.730469 10.679688 13.453125 C 12.625 15.082031 14.621094 15.96875 16.476563 16.40625 C 15.566406 18.574219 15 21.347656 15 25 C 15 31.90625 19.703125 38.242188 20.179688 38.578125 C 20.167969 38.558594 20.15625 38.535156 20.144531 38.515625 C 20 38.246094 19.859375 37.964844 19.71875 37.675781 Z "/>
</g>
</svg>
